<?xml version="1.0" encoding="UTF-8"?><svg id="_Ñëîé_1" xmlns="http://www.w3.org/2000/svg" viewBox="0 0 287.994 644.912"><defs><style>.cls-1{fill:#F2F2F4;}.cls-2{fill:#F2F2F4;}</style></defs><path class="cls-2" d="M153.035,33.23c8.954-8.958,12.561-21.202,10.921-32.846-11.646-1.641-23.886,1.967-32.847,10.923-8.956,8.958-12.567,21.202-10.92,32.844,11.641,1.644,23.887-1.966,32.846-10.921ZM98.921,41.856c3.274-12.235.277-24.645-6.964-33.907-10.907,4.399-19.706,13.648-22.982,25.882-3.279,12.234-.284,24.643,6.962,33.905,10.903-4.396,19.7-13.646,22.984-25.88ZM238.734,95.365c12.236,3.281,24.645.284,33.908-6.961-4.399-10.906-13.649-19.705-25.882-22.984-12.237-3.277-24.644-.282-33.907,6.963,4.398,10.906,13.648,19.703,25.881,22.981ZM47.699,160.405c1.646-11.642-1.963-23.887-10.924-32.844-8.954-8.957-21.198-12.567-32.845-10.925-1.643,11.646,1.968,23.89,10.923,32.846,8.958,8.956,21.2,12.568,32.846,10.923ZM236.442,116.636c-1.647,11.645,1.964,23.887,10.919,32.844,8.956,8.957,21.202,12.568,32.844,10.925,1.643-11.647-1.964-23.889-10.919-32.847-8.963-8.955-21.203-12.567-32.844-10.922ZM204.07,347.179v34.015c36.087-12.794,62.001-47.252,62.001-87.667,0-18.138-5.212-35.071-14.22-49.391,18.569-12.383,29.722-33.226,29.722-55.543v-3.571h-139.494c-12.824-.001-23.256-10.433-23.26-23.248,0-12.822,10.435-23.252,23.254-23.252v-31.001c-19.52,0-36.658,10.364-46.216,25.875,1.144-10.482,5.77-20.192,13.332-27.754,28.985-28.987,79.382-8.764,79.382,32.88h31.001c0-25.327-12.212-47.852-31.053-62.004,16.893-12.688,28.464-32.105,30.669-54.248-9.456-6.297-19.724-11.452-30.614-15.306v7.555c0,25.633-20.863,46.501-46.5,46.501h-.005v.002h-.002c-20.696,0-40.158,8.061-54.795,22.699-2.628,2.624-5.028,5.41-7.226,8.325-12.692-16.881-32.101-28.435-54.224-30.638-6.296,9.456-11.451,19.724-15.305,30.614h7.554c25.609,0,46.457,20.827,46.501,46.423,0,.028-.003.051-.003.076,0,42.69,34.697,77.428,77.374,77.501.039,0,.084.003.125.003h15.502v30.999c0,17.095-13.907,31.001-31,31.001H2.567c0,17.12,13.882,31,31.002,31h2.668c-1.722,4.853-2.668,10.067-2.668,15.502v15.498c0,8.547-6.954,15.502-15.503,15.502H2.567v108.501c0,17.122,13.88,31.002,31.002,31.002v-108.503h36.49c18.293,0,35.004-6.868,47.722-18.146,11.693,8.687,25.268,14.448,39.789,16.856v78.793c0,17.121,13.879,31,31,31v-186.005c-17.12,0-31,13.88-31,31v13.547c-7.797-1.991-15.089-5.464-21.521-10.274,3.864-8.82,6.019-18.554,6.019-28.781v-7.452c26.715-6.901,46.502-31.201,46.502-60.04v-30.999h49.551l-7.155,4.766-27.803,18.542c9.395,5.232,17.301,12.847,22.879,22.01,5.737,9.398,9.027,20.403,9.027,32.186,0,22.888-12.488,42.913-31,53.652ZM111.069,314.515c0,22.614-18.395,41.011-41.01,41.011h-8.177c1.722-4.853,2.686-10.062,2.686-15.502v-15.498c0-8.55,6.956-15.502,15.498-15.502h31.002v5.491ZM45.405,181.677c-12.238-3.279-24.646-.284-33.91,6.963,4.4,10.904,13.649,19.702,25.884,22.982,12.235,3.275,24.643.283,33.907-6.963-4.403-10.907-13.646-19.707-25.881-22.983ZM151.185,132.148c-1.64,11.646,1.97,23.889,10.927,32.846,8.959,8.956,21.195,12.567,32.843,10.923,1.644-11.644-1.963-23.888-10.921-32.842-8.957-8.957-21.203-12.569-32.849-10.926ZM259.938,358.47c-6.23,8.307-13.616,15.693-21.922,21.92l6.139,6.136-23.274,23.273c-12.106,12.106-12.107,31.735-.002,43.843l67.115-67.116-28.056-28.056ZM80.067,464.026c0,17.122,13.88,31.002,31.002,31.002v-103.234c-9.442,5.03-19.908,8.372-31.002,9.641v62.592ZM87.952,254.176c12.239-3.281,21.487-12.077,25.883-22.985-9.263-7.244-21.667-10.24-33.904-6.962-12.232,3.28-21.485,12.077-25.884,22.984,9.268,7.248,21.674,10.239,33.905,6.963Z"/><path class="cls-1" d="M0,536.144h35.722v2.176h-6.641v35.492h22.784v-35.492h-6.755v-2.176h35.836v2.176h-6.755v75.793h6.755v2.176h-35.836v-2.176h6.755v-37.324h-22.784v37.324h6.641v2.176H0v-2.176h6.755v-75.793H0v-2.176Z"/><path class="cls-1" d="M112.086,561.791v44.651c0,12.518-2.157,22.058-6.469,28.623-4.313,6.563-11.354,9.847-21.124,9.847-6.334,0-10.972-1.26-13.911-3.778-2.938-2.519-4.408-5.458-4.408-8.815s.993-5.937,2.977-7.729c1.985-1.794,4.465-2.69,7.442-2.69s5.209.819,6.698,2.461c1.488,1.641,2.232,3.453,2.232,5.438s-.229,3.893-.687,5.725h-4.351c-1.22,2.062-1.392,3.816-.515,5.267.878,1.449,2.481,2.176,4.809,2.176s3.911-1.316,4.751-3.95c.839-2.633,1.259-8.071,1.259-16.315v-58.849h-7.442v-2.061h28.737ZM101.21,553.891c-4.047,0-6.927-1.03-8.644-3.091-1.718-2.061-2.576-4.617-2.576-7.671s.934-5.571,2.805-7.557c1.869-1.983,4.712-2.977,8.529-2.977s6.716.897,8.702,2.69c1.984,1.794,2.977,4.351,2.977,7.671s-.955,5.974-2.862,7.957c-1.909,1.986-4.886,2.977-8.93,2.977Z"/><path class="cls-1" d="M128.343,610.106c-4.885-4.884-7.327-11.888-7.327-21.009s2.613-16.144,7.842-21.066c5.228-4.924,12.574-7.385,22.04-7.385s16.524,2.271,21.181,6.812c4.655,4.542,6.984,11.469,6.984,20.78,0,19.464-9.694,29.195-29.081,29.195-9.542,0-16.755-2.441-21.639-7.327ZM157.081,593.734v-9.732c0-7.402-.401-12.803-1.202-16.2-.802-3.396-2.653-5.095-5.553-5.095-1.68,0-3.034.478-4.064,1.431-1.031.956-1.775,2.539-2.233,4.752-.687,3.435-1.03,8.664-1.03,15.686v8.93c0,8.32.247,13.32.744,14.999.496,1.68,1.011,3.054,1.546,4.121.839,1.832,2.479,2.748,4.923,2.748,2.978,0,4.924-1.718,5.84-5.152.687-2.441,1.03-7.938,1.03-16.486Z"/><path class="cls-1" d="M220.509,564.997c-2.824,0-5.306,1.832-7.441,5.495-2.138,3.664-3.206,8.015-3.206,13.052v30.685h8.129v2.061h-35.722v-2.061h6.298v-50.377h-6.298v-2.061h27.593v10.991c.991-3.893,2.9-6.888,5.725-8.987,2.823-2.099,6.028-3.148,9.617-3.148s6.507,1.012,8.759,3.033c2.251,2.023,3.378,4.886,3.378,8.587s-.841,6.546-2.52,8.53c-1.68,1.985-4.256,2.977-7.728,2.977s-6.031-1.145-7.671-3.435c-1.643-2.29-1.852-5.456-.63-9.503h4.121c1.907-3.893,1.106-5.839-2.404-5.839Z"/><path class="cls-1" d="M244.666,599.917v-36.065h-6.297v-2.061h6.297v-14.77l21.296-5.267v20.036h14.884v2.061h-14.884v38.584c0,3.589.361,6.222,1.088,7.9.725,1.68,2.232,2.519,4.522,2.519s4.293-1.146,6.011-3.435c1.717-2.29,2.843-5.419,3.377-9.389l1.946.229c-.611,5.267-2.289,9.446-5.037,12.537-2.748,3.092-7.29,4.637-13.625,4.637s-11.183-1.259-14.54-3.778c-3.359-2.519-5.038-7.098-5.038-13.738Z"/></svg>